<svg xmlns="http://www.w3.org/2000/svg" viewBox="0 0 39 39">
  <g fill="none" fill-rule="evenodd">
    <circle cx="19.5" cy="19.525" r="19.45" fill="#36498E"/>
    <g fill="#FFF" fill-rule="nonzero" transform="matrix(1 0 0 -1 12.5 30.5)">
      <path d="M5.5004307 21.4444401C5.04248238 21.2945967 4.65524667 20.9612373 4.43974158 20.5335944 4.22255286 20.1025842 4.19056382 19.552036 4.35555991 19.097455 4.56264683 18.5334377 5.03069695 18.1125294 5.63007048 17.9559514 5.80011746 17.9104933 6.13516053 17.8953406 6.32709475 17.9222788 6.82039937 17.9929914 7.28171496 18.2859436 7.56961629 18.7085356 7.86761942 19.1496476 7.95516836 19.7473375 7.79522318 20.2557948 7.66895067 20.654816 7.40125294 21.0100626 7.0577917 21.2339859 6.87932655 21.3501566 6.80693031 21.3838293 6.62678152 21.4427565 6.47357087 21.4932655 6.47357087 21.4932655 6.05939702 21.4932655 5.65027408 21.4915818 5.64185591 21.4915818 5.5004307 21.4444401zM5.84557557 17.2993344C5.1990603 17.2134691 4.65524667 16.7386844 4.47004699 16.0955364L4.43132341 15.9625294 4.43132341 12.6878622 4.43132341 9.41319499 4.47846515 9.26503524C4.67713391 8.62862177 5.17548943 8.19424432 5.82537197 8.09154268 5.97184808 8.06797181 6.25469851 8.07638998 6.38097103 8.10837901 6.44326547 8.12521535 6.47188724 8.12521535 6.49882537 8.11006265 6.52576351 8.09659358 7.32380579 8.08985904 9.564722 8.08649178L12.5935787 8.08312451 14.0936962 5.48696163C14.9186766 4.05924041 15.5988645 2.88574785 15.6055991 2.88069695 15.6123336 2.87396241 15.7487079 2.94299139 15.9086531 3.03559123 16.0685983 3.12819107 16.2251762 3.21237275 16.2554816 3.22247455 16.285787 3.23257635 16.827917 3.54236492 17.4592796 3.91108066 18.6849648 4.62494127 16.6326155 5.27145654 16.6275646 5.27819107 16.6225137 5.28324197 16.0399765 6.28837118 15.3328504 7.51068912 14.627408 8.73300705 14.0431872 9.73981989 14.034769 9.74992169 14.0246672 9.75833986 14.0128818 9.75833986 13.9994127 9.74487079 13.9674236 9.71288175 13.9522709 9.72129992 13.9522709 9.77349256 13.9522709 9.84757244 13.8882929 10.0395067 13.8209475 10.1708301 13.7401331 10.3257244 13.5313626 10.5378622 13.3714174 10.6270948 13.3074393 10.6624511 13.1929522 10.7112764 13.1188724 10.7348473L12.9841817 10.7769381 10.345928 10.781989 7.7059906 10.7870399 7.7059906 11.4672279 7.7059906 12.1490995 9.74823806 12.1524667 11.7888019 12.1575176 11.8881363 12.1945576C11.9436962 12.2164448 12.0312451 12.2652702 12.0817541 12.3039937 12.4538371 12.5952623 12.4370008 13.1676977 12.0480814 13.4269773 11.8578309 13.5549334 12.0076742 13.5465153 9.74150352 13.5465153L7.70767424 13.5465153 7.70262334 14.746946C7.6958888 15.9339076 7.6958888 15.9473767 7.65884886 16.0803837 7.49048551 16.6713391 7.042639 17.1141347 6.4651527 17.2606108 6.28500392 17.3060689 6.01898982 17.3229052 5.84557557 17.2993344z"/>
      <path d="M3.30328896,12.9050509 C2.83018794,12.6137823 2.40759593,12.2720047 1.98163665,11.8359436 C1.43108849,11.27361 1.02533281,10.6944401 0.683555208,9.98563038 C0.0269381363,8.62188724 -0.161628818,7.09483164 0.139741582,5.58629601 C0.356930305,4.50203602 0.830031323,3.48848865 1.5371574,2.60289742 C1.88230227,2.1702036 2.47999217,1.60618637 2.94972592,1.27451057 C3.48512138,0.894009397 4.12153485,0.570751762 4.76805012,0.351879405 C5.2091621,0.202036022 5.77149569,0.0808144088 6.28332028,0.0235708692 C6.59142522,-0.0101018011 7.45007831,-0.00505090055 7.75649961,0.0319890368 C8.28684417,0.0976507439 8.70438528,0.191934221 9.19600626,0.355246672 C10.7601018,0.875489428 12.0935395,1.94459671 12.9555599,3.37231793 C13.1272905,3.65516836 13.3629992,4.13332028 13.4791699,4.43300705 L13.5650352,4.65356304 L13.0649961,5.52231793 C12.7888802,6.00046985 12.559906,6.39107283 12.5548551,6.39107283 C12.5498042,6.39107283 12.5329679,6.29342208 12.5161316,6.17556774 C12.4033281,5.36405638 12.1002741,4.57443226 11.632224,3.87067345 C11.0126468,2.93625685 10.0967502,2.1954581 9.05289742,1.77960063 C8.37776038,1.51021926 7.72282694,1.38731402 6.96519186,1.38731402 C5.47180893,1.38899765 4.08954581,1.96311668 3.02717306,3.02548943 C2.08433829,3.9683242 1.52537197,5.1788567 1.40751762,6.53418168 C1.38394675,6.80693031 1.39741582,7.42482381 1.43445576,7.68747063 C1.62302271,9.05963195 2.28469068,10.3004699 3.29150352,11.172592 L3.49690681,11.3493735 L3.49690681,12.1794049 C3.49690681,12.6339859 3.49017228,13.0077525 3.48343774,13.0077525 C3.47670321,13.0077525 3.39420517,12.9606108 3.30328896,12.9050509 Z"/>
    </g>
  </g>
</svg>
